# xmcd CD database file
#
# Track frame offsets:
#	150
#	22480
#	44282
#	79412
#	111775
#	131705
#	155310
#	183717
#	216310
#
# Disc length: 3164 seconds
#
# Revision: 0
# Processed by: cddbd v1.5.2PL0 Copyright (c) Steve Scherf et al.
# Submitted via: CDex 1.70beta2
#
DISCID=850c5a09
DTITLE=Mike Pope - The Lay of The Land
DYEAR=1900
DGENRE=Jazz
TTITLE0=The First Order of Business
TTITLE1=Essence
TTITLE2=At Home Again
TTITLE3=The Lay of The Land
TTITLE4=Cherokee
TTITLE5=Climate
TTITLE6=The Avid Listener
TTITLE7=The Way You Look Tonight
TTITLE8=The Star Spangled Banner
EXTD=
EXTT0=
EXTT1=
EXTT2=
EXTT3=
EXTT4=
EXTT5=
EXTT6=
EXTT7=
EXTT8=
PLAYORDER=
